<svg id="Layer_1" data-name="Layer 1" xmlns="http://www.w3.org/2000/svg" viewBox="0 0 482 274"><defs><style>.cls-1,.cls-2{fill:#ffffff;}.cls-1{fill-rule:evenodd;}</style></defs><path class="cls-1" d="M350.63,110.93c-3.58-2.63-6.13-9.64-22.23-16.12a90.64,90.64,0,0,0-15.13-4.34c-28.9-6.13-12.13-33.09,4.51-22.83.76.47,2.61,2,3,2.16,2.21,1.1,25.21.48,28.72.48-.16-7-6.53-13.59-11.31-17.89-13.65-12.27-46-14.93-61.74,6.68-5.18,7.12-8.2,21.12-4.17,31.75,3.05,8.06,9.91,12.79,16.86,16.92a30.33,30.33,0,0,0,3.29,1.86c8.43,3.91,22.83,8.2,27.86,11.08,21.24,12.17-10,41.14-26.9,9.14H265.9V.44H239.57V47.38h-24c0,18.73.95,40,0,58.4-2,39.46-56.93,41.45-56.69.58.11-19.65,0-39.33,0-59H131.94l-.57,45.8c0-7.58-6-18.66-10.08-24.85-19.73-29.75-62.83-36.74-90.6-15.72C28.21,54.49,26.46,56,24,57.93A62.06,62.06,0,0,0,12.36,69.78,54.43,54.43,0,0,0,7.7,77.14,62.49,62.49,0,0,0,1.48,95c-.62,3.46-1,10.8-1.22,20.12V209.4H27.17V155.58c19.38,10.26,40.73,19.35,66.43,8a64.94,64.94,0,0,0,32.63-30.91c1.69-3.47,5.14-11.74,5.14-16.62h.57c0,27.43,21,42.45,46.37,45.23,18.65,2,33.34-1.13,46.38-9.73,9.7-6.41,11-12.17,14.46-18.74,0-.1.17-.29.21-.37a3,3,0,0,1,.21-.36V163H265.9V130.39l1.35,3.8a40.26,40.26,0,0,0,1.18,4c2.93,7.8,5.63,13.22,11.64,19.27,6.63,6.66,16.83,11.91,29.9,11.89,15.43,0,22.7-3,31.52-9.74a40.9,40.9,0,0,0,9.83-10.77c4.21-6.68,4-8.5,5.61-15.58l4.8,7.8a84.52,84.52,0,0,0,5.67,7.49c3.41,4.06,9.58,8.62,14.33,11.44,23.62,14.08,60.22,11.54,79.25-6.26,3.73-3.48,5.85-5.15,9.23-9.66,1.06-1.42,1.84-2.5,2.83-4,2.3-3.61,7.43-13.58,7.55-18.79h-29.2c-1.09,1.64-1.83,3.27-3.09,4.93-.78,1-1.09,1.18-1.88,2.12-16.79,20-48.69,16.61-62.25-2.8a31,31,0,0,1-3-5c-2.78-6-2.85-11.4-3.61-13h104.2c0-9.61-3-19.87-5.8-26.83-8-19.52-25-32.94-45.8-36.65-13.13-2.34-29.6-.74-41.54,5.27-14.85,7.47-26.79,17-33.22,33.18-3.9,9.81-4.75,15-4.75,28.47ZM39.77,101.2,9.14,102.63l32.92,2L49.5,82.88,65,143l14.31-36.64,45.8-3.15-47.8-.57-11.45,26.9-15.46-59L39.77,101.2ZM386.13,84h60.68c-13.95-20.93-48.57-21.63-60.68,0Z"/><path class="cls-2" d="M196.68,238.36c.1,6.23,5.33,8.75,11,8.75,4.13,0,9.36-1.61,9.36-6.64,0-4.33-5.94-5.83-16.2-8.05-8.25-1.81-16.5-4.73-16.5-13.88,0-13.28,11.47-16.7,22.64-16.7,11.36,0,21.83,3.82,22.93,16.6H216.29c-.4-5.53-4.63-7-9.76-7-3.21,0-7.94.6-7.94,4.83,0,5.13,8,5.83,16.19,7.74,8.35,1.91,16.5,4.93,16.5,14.59,0,13.68-11.87,18.11-23.74,18.11-12.07,0-23.84-4.53-24.44-18.31Z"/><path class="cls-2" d="M237.61,203.25h13.58v6.64h.21c3.41-5.53,9-8,15.49-8,16.29,0,23.64,13.18,23.64,28,0,13.88-7.65,26.86-22.84,26.86a18.46,18.46,0,0,1-15.59-7.85h-.2v24.74H237.61Zm38.63,26.15c0-8.24-3.32-16.79-12.47-16.79-9.36,0-12.37,8.34-12.37,16.79s3.21,16.5,12.47,16.5S276.24,237.85,276.24,229.4Z"/><path class="cls-2" d="M322.31,201.84c16.39,0,27,10.87,27,27.46s-10.57,27.37-27,27.37-26.86-10.87-26.86-27.37S306,201.84,322.31,201.84Zm0,44.06c9.75,0,12.67-8.35,12.67-16.6s-2.92-16.69-12.67-16.69S309.73,221,309.73,229.3,312.65,245.9,322.31,245.9Z"/><path class="cls-2" d="M356.51,203.25h13.58v9.66h.2a18.38,18.38,0,0,1,16.59-11.07,10.67,10.67,0,0,1,3.12.5v13.28a26.24,26.24,0,0,0-5.13-.5c-10.46,0-14.08,7.54-14.08,16.7v23.44H356.51Z"/><path class="cls-2" d="M418.77,203.25h10.46v9.56H418.77v25.75c0,4.83,1.21,6,6,6a22.13,22.13,0,0,0,4.43-.4v11.17a55.05,55.05,0,0,1-8.35.5c-8.75,0-16.4-2-16.4-12.37V212.81h-8.65v-9.56h8.65V187.66h14.29Z"/><path class="cls-2" d="M447.13,238.36c.1,6.23,5.33,8.75,11,8.75,4.12,0,9.35-1.61,9.35-6.64,0-4.33-5.93-5.83-16.19-8.05-8.25-1.81-16.5-4.73-16.5-13.88,0-13.28,11.47-16.7,22.63-16.7,11.37,0,21.83,3.82,22.94,16.6H466.75c-.4-5.53-4.63-7-9.76-7-3.22,0-7.95.6-7.95,4.83,0,5.13,8,5.83,16.2,7.74,8.35,1.91,16.5,4.93,16.5,14.59,0,13.68-11.87,18.11-23.74,18.11-12.07,0-23.84-4.53-24.45-18.31Z"/></svg>